PathFileType	4	(X/Y/Z)	./resultDataOpenSim/trcMotMarkerGrf/sub09/qtm-13-08.trc
DataRate	CameraRate	NumFrames	NumMarkers	Units	OrigDataRate	OrigDataStartFrame	OrigNumFrames
250.000000	250.000000	6	24	m	250.000000	420	479
Frame#	Time	L.Toe.Tip			R.Toe.Tip			L.Ankle.Lat			R.Ankle.Lat			L.Ankle.Med			R.Ankle.Med			L.Heel			R.Heel			L.Knee.Lat			R.Knee.Lat			L.Knee.Med			R.Knee.Med			L.Thigh.Upper			R.Thigh.Upper			L.ASIS			R.ASIS			V.Sacral			L.Acromium			R.Acromium			C7			L.Elbow			R.Elbow			L.Wrist.Lat			R.Wrist.Lat
		X1	Y1	Z1	X2	Y2	Z2	X3	Y3	Z3	X4	Y4	Z4	X5	Y5	Z5	X6	Y6	Z6	X7	Y7	Z7	X8	Y8	Z8	X9	Y9	Z9	X10	Y10	Z10	X11	Y11	Z11	X12	Y12	Z12	X13	Y13	Z13	X14	Y14	Z14	X15	Y15	Z15	X16	Y16	Z16	X17	Y17	Z17	X18	Y18	Z18	X19	Y19	Z19	X20	Y20	Z20	X21	Y21	Z21	X22	Y22	Z22	X23	Y23	Z23	X24	Y24	Z24

420	1.676	1.7557942	0.11666548	-0.045022361	1.0684335	0.0401937	0.102259	1.6037371	0.084494309	-0.074915986	0.9329386	0.088481147	0.13406958	1.624459	0.1128683	0.017596187	0.95454909	0.12244093	0.042762387	1.5592249	0.022850121	-0.021777325	0.85943002	0.087824954	0.082564063	1.4585189	0.47791198	-0.10958033	1.1776475	0.48105068	0.18788899	1.4635156	0.47045583	0.017721086	1.1618275	0.47431602	0.0622349	1.283178	0.85389812	-0.14154565	1.2311997	0.88355379	0.23169355	1.3507636	0.94852913	-0.08029801	1.3445256	0.9627546	0.16036772	1.1773118	1.0019198	0.025039512	1.316254	1.4070363	-0.1425151	1.298516	1.4195392	0.18834278	1.2369885	1.4603506	0.020486363	1.1709648	1.0703353	-0.20385621	1.1941002	1.0663414	0.29279417	1.2945546	0.83919404	-0.24638733	1.3988689	0.87858606	0.27613567
421	1.68	1.7594058	0.11242838	-0.043985673	1.0686488	0.040293486	0.10244411	1.6071258	0.082381038	-0.074321042	0.93392302	0.090277827	0.1345671	1.6278205	0.11047413	0.018317301	0.95597364	0.12397015	0.043212856	1.5611731	0.021790624	-0.021238949	0.86043545	0.090473757	0.083083701	1.4655507	0.47736793	-0.10958809	1.1828494	0.47977564	0.1879465	1.4706468	0.47011301	0.017700085	1.1680846	0.47308883	0.062660287	1.2892318	0.8531023	-0.14221208	1.2407675	0.8819053	0.23008215	1.3569999	0.94754644	-0.080900234	1.3506789	0.96157523	0.15990422	1.1834379	1.0006526	0.024544951	1.3213667	1.4059911	-0.1432334	1.3036645	1.418385	0.18764937	1.2420163	1.4591773	0.019796101	1.1766483	1.0690081	-0.20455967	1.1994829	1.0652321	0.29200824	1.3005563	0.83802796	-0.24685255	1.4036623	0.87692403	0.27583891
422	1.684	1.7628319	0.10729741	-0.04297472	1.0688636	0.040360223	0.10268794	1.610311	0.080295855	-0.073648381	0.9349855	0.092174152	0.13504481	1.6309201	0.10806416	0.019161172	0.95749561	0.12561919	0.043684741	1.5626146	0.021108844	-0.020805249	0.86155766	0.093282969	0.083562558	1.4724816	0.47684082	-0.10968175	1.1893427	0.47884077	0.18849572	1.4777116	0.46975586	0.017650487	1.1742329	0.47186745	0.06292436	1.295176	0.8523849	-0.14293628	1.2502043	0.88028977	0.22849383	1.3632266	0.94663685	-0.081519208	1.3568672	0.96039329	0.15942323	1.1895479	0.99939921	0.023993767	1.3264766	1.4049604	-0.14395209	1.3087989	1.4172539	0.18695982	1.247034	1.4580066	0.019088353	1.1823409	1.0676733	-0.20529048	1.2048311	1.0641289	0.29119452	1.3065919	0.83687432	-0.24731673	1.4084182	0.87526748	0.27558033
423	1.688	1.7662365	0.10116154	-0.042054205	1.0690936	0.040405664	0.10296643	1.6133503	0.078403035	-0.072884542	0.93625747	0.094165947	0.13554551	1.6339652	0.10585618	0.020092551	0.9591383	0.12737101	0.044184771	1.5637497	0.020916073	-0.020227356	0.86280931	0.096251998	0.083975053	1.4791647	0.47631962	-0.10982361	1.1963853	0.47806859	0.18924809	1.4846786	0.46935503	0.017552369	1.1801337	0.47059993	0.062925806	1.3010389	0.85171114	-0.14372099	1.2586236	0.87879413	0.22717146	1.369415	0.94581042	-0.08214261	1.3630968	0.95920543	0.15891861	1.195602	0.99818702	0.023357495	1.3315899	1.4039612	-0.14467218	1.3139358	1.4161425	0.18627744	1.2520466	1.4568528	0.018378172	1.1880507	1.0663531	-0.20599346	1.2101599	1.0630362	0.29035654	1.3126634	0.83573493	-0.24777884	1.4131339	0.87360431	0.27535712
424	1.692	1.7697508	0.094275903	-0.041204876	1.0693601	0.040464185	0.10321228	1.6162677	0.076860161	-0.072096295	0.93784418	0.096243678	0.13614282	1.6371729	0.10398032	0.021012422	0.96092432	0.12919388	0.044717956	1.5647125	0.021412185	-0.019576624	0.86420012	0.09938023	0.084327154	1.4856779	0.47579151	-0.10995974	1.2031888	0.47720137	0.18989609	1.4915161	0.4689008	0.017418275	1.1861849	0.46915807	0.062920798	1.3068596	0.85104882	-0.14455071	1.265736	0.87744539	0.22619198	1.3755385	0.94508274	-0.082751645	1.3693592	0.95801232	0.15838487	1.2015906	0.99705472	0.022688618	1.3367081	1.4030036	-0.1454015	1.3190857	1.4150516	0.18560448	1.2570659	1.4557423	0.017668316	1.1937805	1.0650579	-0.20665167	1.2154753	1.0619495	0.28949063	1.3187732	0.83460744	-0.24823704	1.4177996	0.87193021	0.27515294
425	1.696	1.7733856	0.087230834	-0.04034895	1.0696807	0.040572502	0.10335748	1.6190768	0.075729153	-0.071409602	0.9397238	0.098401104	0.13686766	1.6406276	0.10242832	0.021787811	0.96286683	0.1310744	0.045283776	1.5656	0.022627194	-0.019244572	0.86574185	0.10267804	0.084649858	1.4923132	0.47527182	-0.11004874	1.2095721	0.47612077	0.19034886	1.4982094	0.46843393	0.017287198	1.1928826	0.46748754	0.063219991	1.3126885	0.85038012	-0.14539285	1.272069	0.87617519	0.22541085	1.3815768	0.94446532	-0.083339701	1.3756286	0.9568238	0.15782424	1.207529	0.99604354	0.022071662	1.3418276	1.4020798	-0.1461515	1.324248	1.4139928	0.1849361	1.2621048	1.4547095	0.016948408	1.1995323	1.0637851	-0.20727495	1.2207617	1.0608612	0.28858069	1.324924	0.83349273	-0.24868662	1.422406	0.87025402	0.27495261
